<svg xmlns="http://www.w3.org/2000/svg">
  <symbol viewBox="0 0 8 41"  id="scroll-arrow">
    <path d="M3.646 40.665a.5.5 0 0 0 .708 0l3.182-3.182a.5.5 0 1 0-.708-.707L4 39.604l-2.828-2.828a.5.5 0 1 0-.708.707l3.182 3.182zM3.5 0v40.311h1V0h-1z" fill="#0F2E5C"></path>
  </symbol>
  <symbol  viewBox="0 0 24 24" id="twitter">
    <path fill-rule="evenodd" d="M21.12 4.508l1.414.165-.636 1.275-.931 1.865a1.475 1.475 0 0 1-.197.397c-.04.063-.177.262-.183.272a2.096 2.096 0 0 0-.082.131v2.389c0 6.112-5.915 9.995-11.501 9.995-1.143 0-2.012-.054-3.006-.271-1.637-.357-2.855-1.067-3.412-2.308l-.574-1.277 1.395-.129c1.261-.116 2.355-.356 3.195-.678-2.306-.37-3.598-1.383-3.598-3.285v-1h1c.22 0 .417-.018.595-.05C2.868 10.963 2 9.303 2 7.001v-.204c-.007-1.16.055-1.78.373-2.571a4.58 4.58 0 0 1 .894-1.407L4.023 2l.733.838c2.418 2.764 4.808 4.44 7.248 4.643.01-2.55 1.938-4.48 4.5-4.48 1.195 0 2.279.454 3.13 1.272.467.096.962.174 1.486.235zm-2.211 1.654l-.307-.07-.212-.232c-.512-.561-1.154-.858-1.886-.858-1.463 0-2.5 1.042-2.5 2.5 0 .238-.006.387-.036.584-.118.785-.558 1.416-1.464 1.416-2.998 0-5.703-1.607-8.34-4.35-.136.414-.168.838-.164 1.635l.001.215c0 2.048.83 3.168 2.794 3.792l.698.222v.731c0 .887-.84 1.722-2.07 2.096.563.428 1.716.659 3.58.659h1v1c0 1.432-1.645 2.554-4.132 3.14.81.248 1.89.355 3.133.355 4.614 0 9.5-3.208 9.5-7.995v-2.5c0-.294.086-.55.227-.814.055-.104.116-.203.192-.316l.108-.16.08-.158.384-.77a16.89 16.89 0 0 1-.586-.122z"></path>
  </symbol>
  <symbol viewBox="0 0 24 24" id="github">
    <path fill-rule="evenodd" d="M10.017 20.004a1.44 1.44 0 0 1-.034.364 2.17 2.17 0 0 1-.257.647c-.353.593-.953.988-1.726.988-1.82 0-2.534-.893-3.428-3.129C3.966 17.36 3.68 17.003 3 17.003v-2c1.82 0 2.534.893 3.428 3.129.606 1.514.892 1.87 1.572 1.87 0-.29-.004-.546-.012-.894-.02-.816-.022-.983.013-1.2.015-.477.138-.815.384-1.15-2.232-.486-3.737-1.49-4.601-3.117l-.324-.76C3.145 11.973 3 10.947 3 9.76c0-1.365.416-2.586 1.194-3.606-.243-.97-.21-2.156.326-3.494l.175-.438.45-.143c.06-.02.132-.037.218-.05.874-.138 2.117.19 3.743 1.23a13.264 13.264 0 0 1 2.983-.333c.908 0 1.81.091 2.673.272 1.581-.99 2.79-1.301 3.64-1.17.085.014.158.031.217.05l.452.143.175.44c.469 1.177.549 2.261.378 3.21C20.518 6.945 21 8.264 21 9.762c0 1.263-.09 2.212-.35 3.136l-.275.754c-.719 1.625-2.304 2.64-4.747 3.123.254.352.372.709.372 1.228v1l-.001 1a.305.305 0 0 0 .008.064L16 22.003c-.852 0-1.485-.415-1.797-1.07a2.069 2.069 0 0 1-.203-.944v-1.986c0-.084-.003-.089-.207-.293-.546-.546-.793-.958-.793-1.707v-.905l.9-.09c2.68-.27 4.137-1.013 4.62-2.1l.225-.617c.18-.646.255-1.432.255-2.53 0-1.165-.407-2.129-1.177-2.898L17.4 6.44l.173-.573c.153-.509.19-1.111.027-1.798a3.718 3.718 0 0 0-.084.022c-.535.15-1.204.47-2.01 1.008l-.367.245-.429-.106a10.963 10.963 0 0 0-2.621-.311c-1.001 0-1.99.127-2.905.376l-.446.122-.381-.261c-.833-.57-1.526-.91-2.08-1.068a3.71 3.71 0 0 0-.114-.03c-.193.795-.117 1.448.08 1.938l.234.588-.43.464C5.36 7.796 5 8.695 5 9.762c0 .977.114 1.786.324 2.396l.262.62c.654 1.227 2.043 1.965 4.52 2.23l.894.096v.899c0 .75-.247 1.161-.793 1.707-.204.204-.207.21-.207.293l-.017.185c-.012.06-.012.217.004.872.007.3.011.539.013.788a.796.796 0 0 1 .017.156z"></path>
  </symbol>
  <symbol viewBox="0 0 24 24" id="link">
    <path fill-rule="evenodd" d="M14 9V7h4a5 5 0 0 1 0 10h-4v-2h4a3 3 0 0 0 0-6h-4zm-4 6v2H6A5 5 0 0 1 6 7h4v2H6a3 3 0 0 0 0 6h4zm-3-2v-2h10v2H7z"></path>
  </symbol>
  <symbol viewBox="0 0 500 500" id="codepen">
    <path d="M250.001 0C111.927 0 0 111.927 0 250.001 0 388.077 111.927 500 250.001 500 388.073 500 500 388.077 500 250.001 500 111.927 388.073 0 250.001 0zm0 458.943c-115.212 0-208.941-93.733-208.941-208.942 0-115.208 93.729-208.941 208.941-208.941 115.208 0 208.938 93.733 208.938 208.941 0 115.209-93.729 208.942-208.938 208.942z"></path>
    <path d="M404.462 201.172c-.028-.195-.076-.382-.109-.577a13.101 13.101 0 0 0-.232-1.114c-.057-.22-.138-.431-.206-.642a13.714 13.714 0 0 0-.342-.968c-.091-.22-.196-.439-.297-.651-.14-.3-.285-.593-.452-.877-.122-.212-.251-.416-.377-.618-.18-.277-.362-.546-.562-.806-.146-.194-.3-.39-.454-.577a13.147 13.147 0 0 0-.664-.716c-.174-.178-.346-.357-.528-.521a15.537 15.537 0 0 0-.752-.633c-.198-.155-.395-.31-.602-.456-.078-.049-.146-.114-.22-.163L257.369 97.656a13.28 13.28 0 0 0-14.738 0l-141.295 94.196c-.073.049-.142.114-.219.163-.208.146-.403.301-.598.456-.26.203-.512.415-.752.633-.187.164-.357.342-.533.521a11.617 11.617 0 0 0-1.117 1.293c-.195.26-.383.529-.557.806-.134.203-.26.406-.382.618-.163.284-.309.577-.451.877a10.97 10.97 0 0 0-.297.651c-.13.317-.236.642-.341.968-.07.211-.146.422-.208.642-.097.366-.162.74-.231 1.114-.032.195-.081.382-.106.577a12.897 12.897 0 0 0-.122 1.732V297.1c0 .585.044 1.162.122 1.74.025.188.074.382.106.568.069.374.134.748.231 1.114.062.22.138.432.208.643.105.324.211.65.341.975.089.222.195.433.297.645.143.3.289.592.451.885.122.204.248.406.382.61.174.276.362.545.557.806.146.203.301.391.459.577.208.243.427.488.658.716.175.178.346.357.533.52.24.221.492.432.752.635.195.155.391.31.598.454.077.05.146.115.219.163l141.295 94.197a13.286 13.286 0 0 0 7.371 2.236c2.566 0 5.135-.749 7.368-2.236l141.295-94.197c.074-.048.142-.113.22-.163.207-.145.403-.299.602-.454.256-.203.508-.414.752-.635.183-.162.354-.342.528-.52.232-.228.452-.473.664-.716.154-.187.308-.374.454-.577.2-.261.383-.529.562-.806.126-.204.255-.406.377-.61.167-.293.312-.585.452-.885.101-.212.206-.423.297-.645.13-.324.235-.65.342-.975.068-.211.149-.423.206-.643.098-.366.167-.74.232-1.114.033-.187.081-.381.109-.568.073-.578.119-1.155.119-1.74v-94.197c0-.585-.046-1.162-.119-1.731zm-141.176-67.639l104.088 69.387-46.493 31.103-57.595-38.527v-61.963zm-26.571 0v61.963l-57.592 38.527-46.497-31.103 104.089-69.387zM121.99 227.771l33.238 22.231-33.238 22.233v-44.464zm114.725 138.7l-104.088-69.388 46.497-31.094 57.592 38.52v61.962zm13.286-85.04l-46.988-31.429 46.988-31.428 46.985 31.428-46.985 31.429zm13.285 85.04v-61.962l57.595-38.52 46.493 31.094-104.088 69.388zm114.724-94.237l-33.233-22.233 33.233-22.231v44.464z"></path>
  </symbol>
  <symbol  viewBox="0 0 24 24" id="at-sign">
    <path fill-rule="evenodd" d="M15.464 15.605A5 5 0 1 1 15 8V7h2v5c0 2.47.19 3 1 3 1.305 0 2-.617 2-3 0-5.29-2.652-8-8-8a8 8 0 1 0 4.693 14.48l1.173 1.62A10 10 0 1 1 11.999 2c6.462 0 10 3.616 10 10 0 3.545-1.64 5-4 5-1.343 0-2.112-.433-2.535-1.395zM12 15a3 3 0 1 0 0-6 3 3 0 0 0 0 6z"></path>
  </symbol>
  <symbol viewBox="0 0 24 24" id="linkedin">
    <path fill-rule="evenodd" d="M4 2h16a2 2 0 0 1 2 2v16a2 2 0 0 1-2 2H4a2 2 0 0 1-2-2V4a2 2 0 0 1 2-2zm0 2v16h16V4H4zm7.452 5.452A3.023 3.023 0 0 1 13 9h1c1.394 0 3 1.147 3 3v4h-2v-4c0-.576-.594-1-1-1h-1c-.406 0-1 .424-1 1v4h-2V9h1l.452.452zM8 8a1 1 0 1 1 0-2 1 1 0 0 1 0 2zm1 8H7V9h2v7z"></path>
  </symbol>
  <symbol viewBox="0 0 200 300" id="figma">
    <path d="M50 300c27.6 0 50-22.4 50-50v-50H50c-27.6 0-50 22.4-50 50s22.4 50 50 50z" fill="#0acf83"></path>
    <path d="M0 150c0-27.6 22.4-50 50-50h50v100H50c-27.6 0-50-22.4-50-50z" fill="#a259ff"></path>
    <path d="M0 50C0 22.4 22.4 0 50 0h50v100H50C22.4 100 0 77.6 0 50z" fill="#f24e1e"></path>
    <path d="M100 0h50c27.6 0 50 22.4 50 50s-22.4 50-50 50h-50V0z" fill="#ff7262"></path>
    <path d="M200 150c0 27.6-22.4 50-50 50s-50-22.4-50-50 22.4-50 50-50 50 22.4 50 50z" fill="#1abcfe"></path>
  </symbol>
</svg>